<?xml version="1.0" encoding="utf-8"?>
<!-- Generator: Adobe Illustrator 26.0.1, SVG Export Plug-In . SVG Version: 6.00 Build 0)  -->
<svg version="1.1" id="Logo" xmlns="http://www.w3.org/2000/svg" xmlns:xlink="http://www.w3.org/1999/xlink" x="0px" y="0px"
	 viewBox="0 0 48 48" style="enable-background:new 0 0 48 48;" xml:space="preserve">
<style type="text/css">
	.st0{fill:#2B7EE0;}
	.st1{fill:#FFFFFF;}
</style>
<rect y="0" class="st0" width="48" height="48"/>
<path class="st1" d="M349.5,0c0,0.1,0,0.2,0,0.2L349.5,0L349.5,0z"/>
<path class="st1" d="M357.9,30.8l10.6-3.4c0.9,1.9,2.8,4.2,5.9,4.2c3.6,0,4.8-2.4,4.1-4c-2.1-4.6-19.7-3.1-19.7-15.3
	c0-7.9,6.9-12.9,15.4-12.9c7.7,0,13.3,4.7,16.1,10.8l-10.2,3.2c-0.7-1.9-2.6-4.3-5.5-4.3c-3.6,0-4.4,2.5-4,3.7
	c1.3,4.5,19.4,2.1,19.4,15.8c0,7.4-7.3,12.9-15.7,12.9C364.7,41.6,358.6,34.8,357.9,30.8z"/>
<path class="st1" d="M28.8,21.1V48H15.1V21.8c0,0,0-5.4-4.7-5.7C4.6,15.9,4.9,7.6,17.7,6C28.9,4.6,28.8,21.1,28.8,21.1z"/>
<path class="st1" d="M48,5.5V48h-5.8l-0.1-26.2c0,0,0-6.2-4.7-6.4c-5.8-0.2-5.5-8.6,7.3-10.2C45.9,5.1,47,5.2,48,5.5z"/>
</svg>
