<?xml version="1.0" encoding="utf-8"?>
<!-- Generator: Adobe Illustrator 26.0.1, SVG Export Plug-In . SVG Version: 6.00 Build 0)  -->
<svg version="1.1" id="Logo" xmlns="http://www.w3.org/2000/svg" xmlns:xlink="http://www.w3.org/1999/xlink" x="0px" y="0px"
	 viewBox="0 0 1000 229.3" style="enable-background:new 0 0 1000 229.3;" xml:space="preserve">
<style type="text/css">
	.st0{fill:#2B7EE0;}
</style>
<g>
	<path class="st0" d="M95.2,145.2H42l-7.2,25.3H0L47.3,16.1l42.3-2.5l47.6,156.9h-34.8L95.2,145.2z M86.3,113.8L68.4,51.2
		l-17.5,62.6H86.3z"/>
	<path class="st0" d="M264.3,89.9v80.7h-34.8V99.6c0-13.4-6.4-22.8-19.2-21.4c-6.1,0.6-12,5-16.1,10v82.4h-34.8V48.4l33.4-1.9
		l1.4,20.9c7-11.1,17.5-19.2,28.7-20.6C247.1,43.7,264.3,64,264.3,89.9z"/>
	<path class="st0" d="M292.4,19.8c0-11.4,8.1-19.8,19.8-19.8c11.7,0,20,8.3,20,19.8c0,12.2-8.3,20-20,20
		C300.5,39.8,292.4,32,292.4,19.8z M295.2,52.3l34.8-1.9v120.2h-34.8V52.3z"/>
	<path class="st0" d="M531.2,89.9v80.7h-34.8V99.6c0-13.4-6.4-22.8-19.2-21.4c-4.7,0.6-9.2,3.1-12.8,6.7v1.7v84h-34.8V99.6
		c0-13.4-6.1-23.1-18.4-21.4c-5.8,0.6-11.1,4.5-14.7,9.5l0.6,82.9h-34.8V48.7l32.3-1.9l1.7,20v0.3c7-11.1,17-18.9,28.4-20.3
		c16.7-1.9,30,7,36.2,21.1c7-11.4,17.5-19.5,28.9-21.1C513.9,43.7,531.2,64,531.2,89.9z"/>
	<path class="st0" d="M676.7,137.2v31.4c-22.8,5.3-40.1-0.8-46.2-22c-5.6,11.1-14.2,22-27.3,23.9c-28.4,4.5-49.2-22.3-49.2-59.3
		c0-36.4,22.3-69.3,51.2-63.7c11.4,2.2,18.9,11.7,23.7,21.7v-8.6l0.8-14.2l33.7,1.9l-0.3,65.9C663.1,129.7,665.3,137.2,676.7,137.2z
		 M628.3,130.5v-2.8l0.3-38.7c-5.3-6.4-10.9-10.9-17.3-11.7c-12.8-1.1-21.4,13.6-21.4,34.5c0,17.5,7.5,29.8,21.1,29.2
		C617.4,140.8,623,136.9,628.3,130.5z"/>
	<path class="st0" d="M700.1,123.3l0.3-115.5l34.8-1.9l-0.3,106.3c0,15.3,1.4,23.9,12.2,24.8c2.5,0.3,5.3,0.3,7.5,0.3v33.1
		c-4.2,0.3-7.2,0.6-10.9,0.6C715.1,170.8,700.1,159.7,700.1,123.3z"/>
	<path class="st0" d="M843.9,48.1v1.4l34.8-0.7c0,0,0,0,0,0v-0.7H843.9z"/>
	<path class="st0" d="M903.7,140l31.4-10c2.8,5.6,8.3,12.5,17.5,12.5c10.6,0,14.2-7.2,12.2-12c-6.1-13.6-58.7-9.2-58.7-45.4
		c0-23.4,20.6-38.4,45.9-38.4c22.8,0,39.5,13.9,47.9,32l-30.3,9.5c-1.9-5.6-7.8-12.8-16.4-12.8c-10.6,0-13.1,7.5-12,11.1
		c3.9,13.4,57.6,6.1,57.6,47c0,22-21.7,38.4-46.7,38.4C924,172,906,151.6,903.7,140z"/>
</g>
<path class="st0" d="M843.9,48.1v1.4c0,0,0-15.8-12-16.3c-14.7-0.6-13.9-21.8,18.4-25.8c26.4-3.3,28.2,35,28.3,40.7H843.9z"/>
<path class="st0" d="M878.7,48.8v119.5c0,39.5-25.6,60.9-58.7,60.9c-20.9,0-38.1-12.5-43.4-19.2l15.6-24.8c5,5,15,12.2,27.8,12.2
	c14.5,0,24.5-10.6,24.5-28.9v-14.7c-7,9.2-16.1,15.6-27.3,16.7c-23.7,2.2-41.7-14.5-41.7-43.1V49.5c0,0,0-13.8-12-14.4
	c-14.7-0.6-13.9-21.8,18.5-25.8c28.5-3.5,28.3,38.2,28.3,38.2v71c0,14.2,6.4,23.1,19.2,21.1c5.8-0.8,10.8-4.5,14.8-9.5l-0.3-80.7
	L878.7,48.8z"/>
<path class="st0" d="M878.7,48.8C878.7,48.8,878.7,48.8,878.7,48.8l-34.8,0.7v-1.4h34.8C878.7,48.5,878.7,48.8,878.7,48.8z"/>
</svg>
